<svg width="131" height="151" viewBox="0 0 131 151" fill="none" xmlns="http://www.w3.org/2000/svg">
<rect x="7.05212" y="19.1731" width="122.792" height="131.167" fill="#959AFA" stroke="black"/>
<rect x="1.13696" y="12.5956" width="122.792" height="131.167" fill="#959AFA" stroke="black"/>
<rect x="22.2682" y="1.33978" width="16.7236" height="34.6691" rx="6.29643" fill="#959AFA" stroke="black"/>
<rect x="86.0402" y="1.33978" width="16.7236" height="34.6691" rx="6.29643" fill="#959AFA" stroke="black"/>
<rect x="40.6929" y="79.4487" width="13.8927" height="13.8927" fill="#959AFA" stroke="black"/>
<rect x="64.7822" y="79.4487" width="13.8927" height="13.8927" fill="#959AFA" stroke="black"/>
<rect x="88.8715" y="79.4487" width="13.8927" height="13.8927" fill="#959AFA" stroke="black"/>
<rect x="40.6929" y="106.43" width="13.8927" height="13.8927" fill="#959AFA" stroke="black"/>
<rect x="16.6035" y="106.43" width="13.8927" height="13.8927" fill="#959AFA"/>
<rect x="16.6035" y="106.43" width="13.8927" height="13.8927" stroke="black"/>
<rect x="16.6035" y="106.43" width="13.8927" height="13.8927" stroke="black" stroke-opacity="0.2"/>
<rect x="64.7822" y="106.43" width="13.8927" height="13.8927" fill="#959AFA" stroke="black"/>
<rect x="88.8715" y="106.43" width="13.8927" height="13.8927" fill="#959AFA" stroke="black"/>
<rect x="1.13696" y="54.5206" width="122.792" height="6.41563" fill="#959AFA" stroke="black"/>
</svg>
